<?xml version="1.0" encoding="UTF-8"?><svg id="Layer_2" xmlns="http://www.w3.org/2000/svg" viewBox="0 0 91.02 95.93"><g id="Layer_1-2"><path d="M29.72,95.93c-3.86,0-7.62-.73-11.18-2.18-3.69-1.5-7-3.69-9.84-6.53s-5.03-6.15-6.53-9.84c-1.44-3.56-2.18-7.32-2.18-11.18s.73-7.62,2.18-11.18c1.5-3.69,3.69-7,6.53-9.84h0L47.88,6.2c2.02-2.02,4.38-3.58,7-4.65,2.54-1.03,5.22-1.55,7.96-1.55s5.43,.52,7.96,1.55c2.63,1.07,4.98,2.63,7,4.65,2.02,2.02,3.58,4.38,4.65,7,1.03,2.54,1.55,5.22,1.55,7.96s-.52,5.43-1.55,7.96c-1.07,2.63-2.63,4.98-4.65,7l-39.08,39.08c-1.22,1.21-2.63,2.16-4.22,2.8-1.53,.62-3.14,.93-4.79,.93s-3.26-.31-4.79-.93c-1.58-.64-3-1.58-4.22-2.8-1.21-1.21-2.16-2.63-2.8-4.22-.62-1.53-.93-3.14-.93-4.79s.31-3.27,.93-4.79c.64-1.58,1.58-3,2.8-4.22L56.75,21.17c1.66-1.66,4.35-1.66,6.01,0,1.66,1.66,1.66,4.35,0,6.01L26.72,63.2c-.8,.8-1.24,1.87-1.24,3s.44,2.2,1.24,3c.8,.8,1.87,1.24,3,1.24s2.2-.44,3-1.24L71.81,30.13c2.39-2.39,3.71-5.58,3.71-8.96s-1.32-6.57-3.71-8.96c-2.39-2.39-5.58-3.71-8.96-3.71s-6.57,1.32-8.96,3.71h0L14.71,51.19c-2.03,2.03-3.6,4.39-4.66,7.02-1.03,2.54-1.55,5.23-1.55,7.99s.52,5.45,1.55,7.99c1.07,2.63,2.64,4.99,4.67,7.02,2.03,2.03,4.39,3.6,7.02,4.66,2.54,1.03,5.23,1.56,7.99,1.56s5.45-.52,7.99-1.56c2.63-1.07,4.99-2.64,7.02-4.66l39.03-39.03c1.66-1.66,4.35-1.66,6,0,1.66,1.66,1.66,4.35,0,6.01l-39.03,39.03c-2.84,2.84-6.14,5.03-9.84,6.53-3.56,1.44-7.32,2.18-11.18,2.18Z"/></g></svg>