<?xml version="1.0" encoding="UTF-8"?><svg id="Layer_2" xmlns="http://www.w3.org/2000/svg" viewBox="0 0 597.98 260.42"><defs><style>.cls-1{letter-spacing:.05em;}.cls-2{letter-spacing:.05em;}.cls-3{letter-spacing:.02em;}.cls-4,.cls-5{fill:#fff;}.cls-6{letter-spacing:.04em;}.cls-7{letter-spacing:.04em;}.cls-8{letter-spacing:.06em;}.cls-9{letter-spacing:0em;}.cls-10{letter-spacing:.05em;}.cls-5{font-family:NeuzeitGro-Reg, 'Neuzeit Grotesk';font-size:65.77px;stroke:#fff;stroke-miterlimit:10;}.cls-11{letter-spacing:.06em;}.cls-12{letter-spacing:.05em;}</style></defs><g id="Layer_1-2"><g><text class="cls-5" transform="translate(148.34 153.9) scale(.79 1)"><tspan class="cls-3" x="0" y="0">A</tspan><tspan class="cls-1" x="40.91" y="0">V </tspan><tspan class="cls-11" x="103.32" y="0">D</tspan><tspan class="cls-8" x="148.31" y="0">E</tspan><tspan class="cls-12" x="183.63" y="0">V</tspan><tspan class="cls-2" x="223.22" y="0">E</tspan><tspan class="cls-9" x="257.62" y="0">L</tspan><tspan class="cls-7" x="285.44" y="0">O</tspan><tspan class="cls-6" x="337" y="0">P</tspan><tspan class="cls-2" x="374.76" y="0">ME</tspan><tspan class="cls-10" x="466.9" y="0">N</tspan><tspan class="cls-1" x="514.91" y="0">T </tspan></text><g><polygon class="cls-4" points="6.49 53.04 53.04 6.49 119.19 119.19 6.49 53.04"/><path class="cls-4" d="M52.21,12.97l55.76,94.99L12.97,52.21,52.21,12.97m1.66-12.97L0,53.87l130.42,76.56L53.87,0h0Z"/></g><g><polygon class="cls-4" points="6.49 207.39 119.19 141.23 53.04 253.94 6.49 207.39"/><path class="cls-4" d="M107.96,152.46l-55.76,94.99L12.97,208.22l94.99-55.76m22.46-22.46L0,206.56l53.87,53.87,76.56-130.42h0Z"/></g></g></g></svg>