<?xml version="1.0" encoding="UTF-8"?><svg id="Layer_2" xmlns="http://www.w3.org/2000/svg" viewBox="0 0 123.29 105.67"><defs><style>.cls-1{fill:#fff;}</style></defs><g id="Layer_1-2"><path class="cls-1" d="M0,8.81C0,3.94,3.94,0,8.81,0H114.48c4.87,0,8.81,3.94,8.81,8.81s-3.94,8.81-8.81,8.81H8.81C3.94,17.61,0,13.68,0,8.81ZM0,52.84c0-4.87,3.94-8.81,8.81-8.81H114.48c4.87,0,8.81,3.94,8.81,8.81s-3.94,8.81-8.81,8.81H8.81c-4.86,0-8.81-3.94-8.81-8.81Zm114.48,52.84H8.81c-4.86,0-8.81-3.94-8.81-8.81s3.94-8.81,8.81-8.81H114.48c4.87,0,8.81,3.94,8.81,8.81s-3.94,8.81-8.81,8.81Z"/></g></svg>