<?xml version="1.0" encoding="UTF-8"?><svg id="Layer_2" xmlns="http://www.w3.org/2000/svg" viewBox="0 0 124.29 106.68"><defs><style>.cls-1{stroke:#000;stroke-miterlimit:10;}</style></defs><g id="Layer_2-2"><g id="Layer_1-2"><path class="cls-1" d="M.5,9.31C.5,4.44,4.44,.5,9.31,.5H114.98c4.87,0,8.81,3.94,8.81,8.81s-3.94,8.81-8.81,8.81H9.31c-4.87-.01-8.81-3.94-8.81-8.81ZM.5,53.34c0-4.87,3.94-8.81,8.81-8.81H114.98c4.87,0,8.81,3.94,8.81,8.81s-3.94,8.81-8.81,8.81H9.31c-4.86,0-8.81-3.94-8.81-8.81Zm114.48,52.84H9.31c-4.86,0-8.81-3.94-8.81-8.81s3.94-8.81,8.81-8.81H114.98c4.87,0,8.81,3.94,8.81,8.81s-3.94,8.81-8.81,8.81Z"/></g></g></svg>