<?xml version="1.0" encoding="UTF-8"?><svg id="Layer_2" xmlns="http://www.w3.org/2000/svg" viewBox="0 0 230.86 102.78"><defs><style>.cls-1,.cls-2{fill:#fff;}.cls-2{stroke:#fff;stroke-linecap:round;stroke-miterlimit:10;stroke-width:2px;}</style></defs><g id="Layer_1-2"><g><g><path d="M51.39,102.28C23.33,102.28,.5,79.45,.5,51.39S23.33,.5,51.39,.5H179.47c28.06,0,50.89,22.83,50.89,50.89s-22.83,50.89-50.89,50.89H51.39Z"/><path d="M179.47,1c27.78,0,50.39,22.6,50.39,50.39s-22.6,50.39-50.39,50.39H51.39C23.6,101.78,1,79.17,1,51.39S23.6,1,51.39,1H179.47m0-1H51.39C23.13,0,0,23.13,0,51.39s23.13,51.39,51.39,51.39H179.47c28.26,0,51.39-23.13,51.39-51.39S207.73,0,179.47,0h0Z"/></g><g><path class="cls-1" d="M74.64,61.53c-5.85,0-10.61-4.76-10.61-10.6s4.76-10.61,10.61-10.61,10.6,4.76,10.6,10.61-4.76,10.6-10.6,10.6Z"/><path class="cls-1" d="M74.64,40.82c5.57,0,10.1,4.53,10.1,10.1s-4.53,10.11-10.1,10.11-10.11-4.53-10.11-10.11,4.53-10.1,10.11-10.1m0-1c-6.13,0-11.11,4.97-11.11,11.1s4.97,11.11,11.11,11.11,11.1-4.97,11.1-11.11-4.97-11.1-11.1-11.1h0Z"/></g><line class="cls-2" x1="74.53" y1="35.63" x2="74.53" y2="18.97"/><line class="cls-2" x1="85.45" y1="40.07" x2="95.81" y2="29.71"/><line class="cls-2" x1="53.61" y1="72.65" x2="63.98" y2="62.28"/><line class="cls-2" x1="106.73" y1="51.18" x2="90.07" y2="51.18"/><line class="cls-2" x1="59.35" y1="51.18" x2="42.69" y2="51.18"/><line class="cls-2" x1="74.53" y1="83.01" x2="74.53" y2="66.36"/><line class="cls-2" x1="64.05" y1="39.76" x2="53.68" y2="29.4"/><line class="cls-2" x1="95.73" y1="72.56" x2="85.37" y2="62.2"/><circle class="cls-2" cx="168.4" cy="51.39" r="35.58"/></g></g></svg>