<?xml version="1.0" encoding="UTF-8"?><svg xmlns="http://www.w3.org/2000/svg" xmlns:xlink="http://www.w3.org/1999/xlink" viewBox="0 0 1038 905.34"><defs><style>.cls-1{fill:url(#linear-gradient);}.cls-2{fill:#d5d7d6;}.cls-3{fill:url(#linear-gradient-3);opacity:.7;}.cls-3,.cls-4{mix-blend-mode:screen;}.cls-4{fill:url(#linear-gradient-2);opacity:.51;}.cls-5{isolation:isolate;}</style><linearGradient id="linear-gradient" x1="518.42" y1="905.34" x2="518.42" y2="737.02" gradientTransform="matrix(1, 0, 0, 1, 0, 0)" gradientUnits="userSpaceOnUse"><stop offset=".26" stop-color="#b6bcbc"/><stop offset=".52" stop-color="#cdd1d0"/><stop offset=".62" stop-color="#939999"/><stop offset=".77" stop-color="#fdfdfd"/><stop offset=".98" stop-color="#dce1e5"/></linearGradient><linearGradient id="linear-gradient-2" x1="518.42" y1="905.34" x2="518.42" y2="737.02" gradientTransform="matrix(1, 0, 0, 1, 0, 0)" gradientUnits="userSpaceOnUse"><stop offset="0" stop-color="#0e0e0e"/><stop offset=".5" stop-color="#000"/><stop offset=".52" stop-color="#010101"/><stop offset=".73" stop-color="#0b0b0b"/><stop offset="1" stop-color="#0e0e0e"/></linearGradient><linearGradient id="linear-gradient-3" x1="518.42" y1="737.02" x2="518.42" y2="905.34" gradientTransform="matrix(1, 0, 0, 1, 0, 0)" gradientUnits="userSpaceOnUse"><stop offset="0" stop-color="#fff" stop-opacity=".77"/><stop offset=".23" stop-color="#fff" stop-opacity=".65"/><stop offset=".52" stop-color="#fff" stop-opacity=".65"/><stop offset=".52" stop-color="#fff" stop-opacity=".65"/><stop offset=".56" stop-color="#f3f3f3" stop-opacity=".63"/><stop offset=".63" stop-color="#d4d4d4" stop-opacity=".56"/><stop offset=".71" stop-color="#a1a1a1" stop-opacity=".45"/><stop offset=".8" stop-color="#5c5c5c" stop-opacity=".3"/><stop offset=".88" stop-color="#1b1b1b" stop-opacity=".16"/></linearGradient></defs><g class="cls-5"><g id="Layer_2"><g id="Layer_1-2"><g><path d="M1003,.02S73,.02,36,0C-1-.03,0,31.02,0,31.02V621.02H1038V31.02C1038-1.98,1003,.02,1003,.02Zm0,592H36V31.02H1003V592.02Z"/><path class="cls-2" d="M36,737.02H1003s35,0,35-27v-89H0v89s0,27,36,27Z"/><g><path class="cls-1" d="M376,905.02h280c1.46,.13,22.39,1.83,30-7,2.03-2.35,3-5,3-5,2.28-6.2-.11-12.06-1-14-16-24.33-32-48.67-48-73-3.49-11.15-6.77-24.23-9-39-1.64-10.83-2.46-20.9-2.77-30h-216.58s-3.66,58-13.66,70c-8.24,12.31-16.49,24.85-24.75,37.62-7.24,11.2-14.33,22.33-21.25,33.38-1.46,1.76-5.88,7.54-5,15,.03,.27,.29,2.38,1,4,2.77,6.32,14.19,9.35,28,8Z"/><path class="cls-4" d="M376,905.02h280c1.46,.13,22.39,1.83,30-7,2.03-2.35,3-5,3-5,2.28-6.2-.11-12.06-1-14-16-24.33-32-48.67-48-73-3.49-11.15-6.77-24.23-9-39-1.64-10.83-2.46-20.9-2.77-30h-216.58s-3.66,58-13.66,70c-8.24,12.31-16.49,24.85-24.75,37.62-7.24,11.2-14.33,22.33-21.25,33.38-1.46,1.76-5.88,7.54-5,15,.03,.27,.29,2.38,1,4,2.77,6.32,14.19,9.35,28,8Z"/><path class="cls-3" d="M376,905.02h280c1.46,.13,22.39,1.83,30-7,2.03-2.35,3-5,3-5,2.28-6.2-.11-12.06-1-14-16-24.33-32-48.67-48-73-3.49-11.15-6.77-24.23-9-39-1.64-10.83-2.46-20.9-2.77-30h-216.58s-3.66,58-13.66,70c-8.24,12.31-16.49,24.85-24.75,37.62-7.24,11.2-14.33,22.33-21.25,33.38-1.46,1.76-5.88,7.54-5,15,.03,.27,.29,2.38,1,4,2.77,6.32,14.19,9.35,28,8Z"/></g></g></g></g></g></svg>