<?xml version="1.0" encoding="UTF-8"?><svg id="Layer_2" xmlns="http://www.w3.org/2000/svg" viewBox="0 0 298.02 563.16"><defs><style>.cls-1{fill:none;stroke:#fff;stroke-linecap:round;stroke-miterlimit:10;stroke-width:2px;}</style></defs><g id="Layer_1-2"><g><path d="M296,129.09c-1.01-.35-2.16-.11-3,.63V34.09c0-.56-.01-2.03-.23-3.94-.32-2.79-1.61-13.91-10.77-22.06-6.89-6.13-14.7-7.45-18-7.8C142.27-.29,53.34,.16,33,.29,1,.49,6,34.09,6,34.09v31c-.15-.15-1.36-1.25-3-1-1.46,.22-2.68,1.42-3,3v22c.32,1.58,1.54,2.78,3,3,1.64,.25,2.85-.85,3-1v20c-.15-.15-1.36-1.25-3-1-1.46,.22-2.68,1.42-3,3v33c.32,1.58,1.54,2.78,3,3,1.64,.25,2.85-.85,3-1v17.02c-.15-.15-1.35-1.26-3-1.02-1.46,.22-2.68,1.42-3,3v33c.32,1.58,1.54,2.78,3,3,1.64,.25,2.85-.85,3-1v2.52c-.82,176.43,0,304.99,0,327.48,0,34,27,31,27,31h231c27,0,29-31,29-31V183.78c.62,1.07,1.86,1.6,3,1.31,1.28-.32,2.16-1.61,2-3v-50c.03-1.36-.79-2.58-2-3Zm-14,403c-.05,1.22-.26,3-1,5-1.44,3.87-3.97,6.11-5,7,0,0-4.67,4.03-12,5-9.25,1.22-103.02,1.24-231,0-.74,.05-9.1,.47-14-6-2.7-3.56-2.98-7.41-3-9V29.09c.19-2.51,.92-6.69,4-10,3.88-4.17,9.39-4.79,13-5,17.52-1.04,38.02-.27,44.44,0,0,0,.26,20,11.41,20h121.5s9.18,2,9.92-20h43.73c2.89,.06,6.67,.63,10,3,0,0,6.63,4.72,8,17,1.63,14.65,1.49,219.14,0,498Z"/><line class="cls-1" x1="131.85" y1="13.4" x2="152.85" y2="13.4"/><circle class="cls-1" cx="165.35" cy="13.4" r="1.5"/></g></g></svg>