<?xml version="1.0" encoding="UTF-8"?><svg id="Layer_2" xmlns="http://www.w3.org/2000/svg" xmlns:xlink="http://www.w3.org/1999/xlink" viewBox="0 0 2167.02 722.3"><defs><style>.cls-1{fill:url(#linear-gradient-5);}.cls-1,.cls-2,.cls-3,.cls-4,.cls-5,.cls-6,.cls-7,.cls-8,.cls-9,.cls-10,.cls-11,.cls-12,.cls-13,.cls-14,.cls-15,.cls-16,.cls-17,.cls-18,.cls-19,.cls-20,.cls-21,.cls-22,.cls-23,.cls-24,.cls-25,.cls-26,.cls-27,.cls-28,.cls-29,.cls-30,.cls-31,.cls-32,.cls-33,.cls-34,.cls-35,.cls-36,.cls-37,.cls-38,.cls-39,.cls-40,.cls-41,.cls-42,.cls-43,.cls-44,.cls-45,.cls-46,.cls-47,.cls-48,.cls-49,.cls-50,.cls-51,.cls-52,.cls-53,.cls-54,.cls-55,.cls-56,.cls-57,.cls-58,.cls-59,.cls-60,.cls-61,.cls-62,.cls-63,.cls-64,.cls-65,.cls-66,.cls-67,.cls-68,.cls-69,.cls-70,.cls-71,.cls-72,.cls-73,.cls-74,.cls-75,.cls-76,.cls-77,.cls-78,.cls-79,.cls-80,.cls-81,.cls-82,.cls-83,.cls-84,.cls-85,.cls-86,.cls-87,.cls-88,.cls-89,.cls-90,.cls-91,.cls-92,.cls-93,.cls-94,.cls-95,.cls-96,.cls-97,.cls-98,.cls-99,.cls-100,.cls-101,.cls-102,.cls-103,.cls-104,.cls-105,.cls-106,.cls-107,.cls-108,.cls-109,.cls-110,.cls-111,.cls-112,.cls-113,.cls-114,.cls-115,.cls-116,.cls-117,.cls-118,.cls-119,.cls-120,.cls-121,.cls-122,.cls-123,.cls-124{stroke:#09c1b2;stroke-miterlimit:10;stroke-width:.25px;}.cls-2{fill:url(#linear-gradient-7);}.cls-3{fill:url(#linear-gradient-6);}.cls-4{fill:url(#linear-gradient-9);}.cls-5{fill:url(#linear-gradient-3);}.cls-6{fill:url(#linear-gradient-8);}.cls-7{fill:url(#linear-gradient-2);}.cls-8{fill:url(#linear-gradient-4);}.cls-9{fill:url(#linear-gradient-121);}.cls-10{fill:url(#linear-gradient-122);}.cls-11{fill:url(#linear-gradient-106);}.cls-12{fill:url(#linear-gradient-108);}.cls-13{fill:url(#linear-gradient-109);}.cls-14{fill:url(#linear-gradient-107);}.cls-15{fill:url(#linear-gradient-104);}.cls-16{fill:url(#linear-gradient-103);}.cls-17{fill:url(#linear-gradient-123);}.cls-18{fill:url(#linear-gradient-101);}.cls-19{fill:url(#linear-gradient-100);}.cls-20{fill:url(#linear-gradient-117);}.cls-21{fill:url(#linear-gradient-118);}.cls-22{fill:url(#linear-gradient-111);}.cls-23{fill:url(#linear-gradient-112);}.cls-24{fill:url(#linear-gradient-114);}.cls-25{fill:url(#linear-gradient-113);}.cls-26{fill:url(#linear-gradient-110);}.cls-27{fill:url(#linear-gradient-105);}.cls-28{fill:url(#linear-gradient-102);}.cls-29{fill:url(#linear-gradient-119);}.cls-30{fill:url(#linear-gradient-115);}.cls-31{fill:url(#linear-gradient-116);}.cls-32{fill:url(#linear-gradient-120);}.cls-125{fill:#09c1b2;}.cls-33{fill:url(#linear-gradient);}.cls-34{fill:url(#linear-gradient-40);}.cls-35{fill:url(#linear-gradient-43);}.cls-36{fill:url(#linear-gradient-42);}.cls-37{fill:url(#linear-gradient-41);}.cls-38{fill:url(#linear-gradient-54);}.cls-39{fill:url(#linear-gradient-55);}.cls-40{fill:url(#linear-gradient-58);}.cls-41{fill:url(#linear-gradient-56);}.cls-42{fill:url(#linear-gradient-59);}.cls-43{fill:url(#linear-gradient-57);}.cls-44{fill:url(#linear-gradient-53);}.cls-45{fill:url(#linear-gradient-51);}.cls-46{fill:url(#linear-gradient-52);}.cls-47{fill:url(#linear-gradient-50);}.cls-48{fill:url(#linear-gradient-48);}.cls-49{fill:url(#linear-gradient-47);}.cls-50{fill:url(#linear-gradient-44);}.cls-51{fill:url(#linear-gradient-49);}.cls-52{fill:url(#linear-gradient-45);}.cls-53{fill:url(#linear-gradient-46);}.cls-54{fill:url(#linear-gradient-71);}.cls-55{fill:url(#linear-gradient-70);}.cls-56{fill:url(#linear-gradient-78);}.cls-57{fill:url(#linear-gradient-79);}.cls-58{fill:url(#linear-gradient-76);}.cls-59{fill:url(#linear-gradient-77);}.cls-60{fill:url(#linear-gradient-74);}.cls-61{fill:url(#linear-gradient-75);}.cls-62{fill:url(#linear-gradient-62);}.cls-63{fill:url(#linear-gradient-61);}.cls-64{fill:url(#linear-gradient-73);}.cls-65{fill:url(#linear-gradient-72);}.cls-66{fill:url(#linear-gradient-60);}.cls-67{fill:url(#linear-gradient-68);}.cls-68{fill:url(#linear-gradient-66);}.cls-69{fill:url(#linear-gradient-67);}.cls-70{fill:url(#linear-gradient-65);}.cls-71{fill:url(#linear-gradient-63);}.cls-72{fill:url(#linear-gradient-64);}.cls-73{fill:url(#linear-gradient-69);}.cls-74{fill:url(#linear-gradient-88);}.cls-75{fill:url(#linear-gradient-89);}.cls-76{fill:url(#linear-gradient-87);}.cls-77{fill:url(#linear-gradient-80);}.cls-78{fill:url(#linear-gradient-81);}.cls-79{fill:url(#linear-gradient-85);}.cls-80{fill:url(#linear-gradient-83);}.cls-81{fill:url(#linear-gradient-82);}.cls-82{fill:url(#linear-gradient-86);}.cls-83{fill:url(#linear-gradient-84);}.cls-84{fill:url(#linear-gradient-98);}.cls-85{fill:url(#linear-gradient-94);}.cls-86{fill:url(#linear-gradient-99);}.cls-87{fill:url(#linear-gradient-95);}.cls-88{fill:url(#linear-gradient-91);}.cls-89{fill:url(#linear-gradient-97);}.cls-90{fill:url(#linear-gradient-96);}.cls-91{fill:url(#linear-gradient-93);}.cls-92{fill:url(#linear-gradient-92);}.cls-93{fill:url(#linear-gradient-90);}.cls-94{fill:url(#linear-gradient-26);}.cls-95{fill:url(#linear-gradient-27);}.cls-96{fill:url(#linear-gradient-24);}.cls-97{fill:url(#linear-gradient-19);}.cls-98{fill:url(#linear-gradient-15);}.cls-99{fill:url(#linear-gradient-12);}.cls-100{fill:url(#linear-gradient-16);}.cls-101{fill:url(#linear-gradient-17);}.cls-102{fill:url(#linear-gradient-11);}.cls-103{fill:url(#linear-gradient-14);}.cls-104{fill:url(#linear-gradient-10);}.cls-105{fill:url(#linear-gradient-13);}.cls-106{fill:url(#linear-gradient-20);}.cls-107{fill:url(#linear-gradient-22);}.cls-108{fill:url(#linear-gradient-18);}.cls-109{fill:url(#linear-gradient-23);}.cls-110{fill:url(#linear-gradient-21);}.cls-111{fill:url(#linear-gradient-38);}.cls-112{fill:url(#linear-gradient-39);}.cls-113{fill:url(#linear-gradient-36);}.cls-114{fill:url(#linear-gradient-35);}.cls-115{fill:url(#linear-gradient-37);}.cls-116{fill:url(#linear-gradient-29);}.cls-117{fill:url(#linear-gradient-25);}.cls-118{fill:url(#linear-gradient-34);}.cls-119{fill:url(#linear-gradient-28);}.cls-120{fill:url(#linear-gradient-30);}.cls-121{fill:url(#linear-gradient-33);}.cls-122{fill:url(#linear-gradient-32);}.cls-123{fill:url(#linear-gradient-31);}.cls-124{fill:none;}.cls-126{filter:url(#outer-glow-1);}</style><linearGradient id="linear-gradient" x1="1281.9" y1="19.39" x2="1364.04" y2="66.81" gradientTransform="matrix(1, 0, 0, 1, 0, 0)" gradientUnits="userSpaceOnUse"><stop offset="0" stop-color="#09c1b2" stop-opacity=".3"/><stop offset="1" stop-color="#09c1b2" stop-opacity="0"/></linearGradient><linearGradient id="linear-gradient-2" x1="1320.64" y1="34.45" x2="1427.2" y2="95.97" xlink:href="#linear-gradient"/><linearGradient id="linear-gradient-3" x1="1462.6" y1="34.64" x2="1535.59" y2="76.78" xlink:href="#linear-gradient"/><linearGradient id="linear-gradient-4" x1="1509.96" y1="61.99" x2="1566.54" y2="94.65" xlink:href="#linear-gradient"/><linearGradient id="linear-gradient-5" x1="49.93" y1="284.71" x2="107.37" y2="317.87" xlink:href="#linear-gradient"/><linearGradient id="linear-gradient-6" x1="185.58" y1="171.81" x2="250.81" y2="209.48" xlink:href="#linear-gradient"/><linearGradient id="linear-gradient-7" x1="271.42" y1="146.12" x2="374.79" y2="205.81" xlink:href="#linear-gradient"/><linearGradient id="linear-gradient-8" x1="238.28" y1="197.95" x2="344.07" y2="259.03" xlink:href="#linear-gradient"/><linearGradient id="linear-gradient-9" x1="387.72" y1="112.2" x2="474.75" y2="162.45" xlink:href="#linear-gradient"/><linearGradient id="linear-gradient-10" x1="418.56" y1="130" x2="573.31" y2="219.35" xlink:href="#linear-gradient"/><linearGradient id="linear-gradient-11" x1="518.08" y1="87.39" x2="646.46" y2="161.51" xlink:href="#linear-gradient"/><linearGradient id="linear-gradient-12" x1="689.13" y1="87.6" x2="793.54" y2="147.88" xlink:href="#linear-gradient"/><linearGradient id="linear-gradient-13" x1="594.45" y1="142.84" x2="681.99" y2="193.38" xlink:href="#linear-gradient"/><linearGradient id="linear-gradient-14" x1="556.27" y1="208.96" x2="643.82" y2="259.5" xlink:href="#linear-gradient"/><linearGradient id="linear-gradient-15" x1="641.54" y1="170.02" x2="740.31" y2="227.05" xlink:href="#linear-gradient"/><linearGradient id="linear-gradient-16" x1="819.11" y1="103.59" x2="922.93" y2="163.53" xlink:href="#linear-gradient"/><linearGradient id="linear-gradient-17" x1="787.9" y1="144.62" x2="870.1" y2="192.08" xlink:href="#linear-gradient"/><linearGradient id="linear-gradient-18" x1="950.53" y1="115.73" x2="1056.5" y2="176.91" xlink:href="#linear-gradient"/><linearGradient id="linear-gradient-19" x1="895.67" y1="147.8" x2="1028.9" y2="224.71" xlink:href="#linear-gradient"/><linearGradient id="linear-gradient-20" x1="979.84" y1="112.1" x2="1065.4" y2="161.5" xlink:href="#linear-gradient"/><linearGradient id="linear-gradient-21" x1="1109.79" y1="64.39" x2="1186.46" y2="108.65" xlink:href="#linear-gradient"/><linearGradient id="linear-gradient-22" x1="1159.18" y1="78.51" x2="1307.76" y2="164.29" xlink:href="#linear-gradient"/><linearGradient id="linear-gradient-23" x1="1572.96" y1="83.54" x2="1651.66" y2="128.98" xlink:href="#linear-gradient"/><linearGradient id="linear-gradient-24" x1="1618.01" y1="109.55" x2="1726.45" y2="172.16" xlink:href="#linear-gradient"/><linearGradient id="linear-gradient-25" x1="1751.92" y1="164.26" x2="1816.49" y2="126.98" xlink:href="#linear-gradient"/><linearGradient id="linear-gradient-26" x1="1793.03" y1="121.62" x2="1883.59" y2="173.91" xlink:href="#linear-gradient"/><linearGradient id="linear-gradient-27" x1="1709.17" y1="202.11" x2="1788.82" y2="248.1" xlink:href="#linear-gradient"/><linearGradient id="linear-gradient-28" x1="1627.71" y1="170.48" x2="1782.15" y2="259.65" xlink:href="#linear-gradient"/><linearGradient id="linear-gradient-29" x1="1558.21" y1="290.85" x2="1759.72" y2="407.19" xlink:href="#linear-gradient"/><linearGradient id="linear-gradient-30" x1="1707.9" y1="388.26" x2="2098.55" y2="613.81" xlink:href="#linear-gradient"/><linearGradient id="linear-gradient-31" x1="59.49" y1="285.94" x2="155.49" y2="341.36" xlink:href="#linear-gradient"/><linearGradient id="linear-gradient-32" x1="21" y1="352.59" x2="204.99" y2="458.82" xlink:href="#linear-gradient"/><linearGradient id="linear-gradient-33" x1="140.48" y1="367.34" x2="246.27" y2="428.42" xlink:href="#linear-gradient"/><linearGradient id="linear-gradient-34" x1="368.36" y1="216.95" x2="523.11" y2="306.3" xlink:href="#linear-gradient"/><linearGradient id="linear-gradient-35" x1="51.44" y1="530.62" x2="433.85" y2="309.85" xlink:href="#linear-gradient"/><linearGradient id="linear-gradient-36" x1="384.09" y1="430.65" x2="534.92" y2="517.73" xlink:href="#linear-gradient"/><linearGradient id="linear-gradient-37" x1="451.18" y1="430.88" x2="551.59" y2="488.85" xlink:href="#linear-gradient"/><linearGradient id="linear-gradient-38" x1="679.91" y1="196.99" x2="871.11" y2="307.38" xlink:href="#linear-gradient"/><linearGradient id="linear-gradient-39" x1="778.91" y1="160.2" x2="911.79" y2="236.92" xlink:href="#linear-gradient"/><linearGradient id="linear-gradient-40" x1="873.1" y1="242.08" x2="1006.79" y2="164.89" xlink:href="#linear-gradient"/><linearGradient id="linear-gradient-41" x1="1056.64" y1="156.44" x2="1133.31" y2="200.71" xlink:href="#linear-gradient"/><linearGradient id="linear-gradient-42" x1="1159.14" y1="78.57" x2="1225.58" y2="116.93" xlink:href="#linear-gradient"/><linearGradient id="linear-gradient-43" x1="1367.21" y1="61.33" x2="1453.08" y2="110.91" xlink:href="#linear-gradient"/><linearGradient id="linear-gradient-44" x1="1429.31" y1="92.31" x2="1502.3" y2="134.45" xlink:href="#linear-gradient"/><linearGradient id="linear-gradient-45" x1="1490.99" y1="172.54" x2="1585" y2="118.26" xlink:href="#linear-gradient"/><linearGradient id="linear-gradient-46" x1="1535.46" y1="148.48" x2="1614.17" y2="193.92" xlink:href="#linear-gradient"/><linearGradient id="linear-gradient-47" x1="1492.42" y1="252.87" x2="1759.72" y2="407.19" xlink:href="#linear-gradient"/><linearGradient id="linear-gradient-48" x1="1449.8" y1="116.6" x2="1540.77" y2="169.13" xlink:href="#linear-gradient"/><linearGradient id="linear-gradient-49" x1="1356.01" y1="232.09" x2="1734.62" y2="450.68" xlink:href="#linear-gradient"/><linearGradient id="linear-gradient-50" x1="1363.94" y1="218.36" x2="1475.24" y2="282.62" xlink:href="#linear-gradient"/><linearGradient id="linear-gradient-51" x1="1298.4" y1="180.52" x2="1384.27" y2="230.1" xlink:href="#linear-gradient"/><linearGradient id="linear-gradient-52" x1="1061.08" y1="168.98" x2="1189.56" y2="243.16" xlink:href="#linear-gradient"/><linearGradient id="linear-gradient-53" x1="1181.21" y1="117.74" x2="1361.83" y2="222.02" xlink:href="#linear-gradient"/><linearGradient id="linear-gradient-54" x1="1128.99" y1="208.19" x2="1309.61" y2="312.47" xlink:href="#linear-gradient"/><linearGradient id="linear-gradient-55" x1="1251.62" y1="412.92" x2="1630.22" y2="631.5" xlink:href="#linear-gradient"/><linearGradient id="linear-gradient-56" x1="1245.99" y1="422.66" x2="1510.11" y2="575.16" xlink:href="#linear-gradient"/><linearGradient id="linear-gradient-57" x1="1149.9" y1="311.86" x2="1269.95" y2="381.16" xlink:href="#linear-gradient"/><linearGradient id="linear-gradient-58" x1="1155.85" y1="370.62" x2="1371.02" y2="494.85" xlink:href="#linear-gradient"/><linearGradient id="linear-gradient-59" x1="1005.47" y1="265.29" x2="1163.87" y2="356.74" xlink:href="#linear-gradient"/><linearGradient id="linear-gradient-60" x1="964.18" y1="336.81" x2="1122.57" y2="428.26" xlink:href="#linear-gradient"/><linearGradient id="linear-gradient-61" x1="881.64" y1="289.16" x2="1046.41" y2="384.29" xlink:href="#linear-gradient"/><linearGradient id="linear-gradient-62" x1="618.53" y1="303.3" x2="809.73" y2="413.69" xlink:href="#linear-gradient"/><linearGradient id="linear-gradient-63" x1="631.82" y1="310.97" x2="974.51" y2="508.82" xlink:href="#linear-gradient"/><filter id="outer-glow-1" filterUnits="userSpaceOnUse"><feOffset dx="0" dy="0"/><feGaussianBlur result="blur" stdDeviation="5"/><feFlood flood-color="#09c1b2" flood-opacity="1"/><feComposite in2="blur" operator="in"/><feComposite in="SourceGraphic"/></filter><linearGradient id="linear-gradient-64" x1="489.67" y1="136.59" x2="588.23" y2="193.49" xlink:href="#linear-gradient"/><linearGradient id="linear-gradient-65" x1="1770.5" y1="237.41" x2="2179.52" y2="473.56" xlink:href="#linear-gradient"/><linearGradient id="linear-gradient-66" x1="1796.14" y1="192.85" x2="2205" y2="428.9" xlink:href="#linear-gradient"/><linearGradient id="linear-gradient-67" x1="164.53" y1="188.64" x2="275.35" y2="188.64" xlink:href="#linear-gradient"/><linearGradient id="linear-gradient-68" x1="64.8" y1="251.38" x2="164.53" y2="251.38" xlink:href="#linear-gradient"/><linearGradient id="linear-gradient-69" x1="64.8" y1="355.42" x2="128.35" y2="355.42" xlink:href="#linear-gradient"/><linearGradient id="linear-gradient-70" x1="128.35" y1="266.4" x2="275.35" y2="266.4" xlink:href="#linear-gradient"/><linearGradient id="linear-gradient-71" x1="128.35" y1="386.4" x2="251.35" y2="386.4" xlink:href="#linear-gradient"/><linearGradient id="linear-gradient-72" x1="251.35" y1="283.4" x2="360.35" y2="283.4" xlink:href="#linear-gradient"/><linearGradient id="linear-gradient-73" x1="264.43" y1="215.66" x2="459.35" y2="215.66" xlink:href="#linear-gradient"/><linearGradient id="linear-gradient-74" x1="360.35" y1="389.9" x2="459.35" y2="389.9" xlink:href="#linear-gradient"/><linearGradient id="linear-gradient-75" x1="459.35" y1="173.24" x2="526.06" y2="173.24" xlink:href="#linear-gradient"/><linearGradient id="linear-gradient-76" x1="360.35" y1="267.9" x2="459.35" y2="267.9" xlink:href="#linear-gradient"/><linearGradient id="linear-gradient-77" x1="394.29" y1="125.24" x2="526.06" y2="125.24" xlink:href="#linear-gradient"/><linearGradient id="linear-gradient-78" x1="275.35" y1="268.9" x2="394.29" y2="268.9" xlink:href="#linear-gradient"/><linearGradient id="linear-gradient-79" x1="459.35" y1="124.24" x2="610.35" y2="124.24" xlink:href="#linear-gradient"/><linearGradient id="linear-gradient-80" x1="610.35" y1="148.9" x2="709.35" y2="148.9" xlink:href="#linear-gradient"/><linearGradient id="linear-gradient-81" x1="603.29" y1="195.4" x2="709.35" y2="195.4" xlink:href="#linear-gradient"/><linearGradient id="linear-gradient-82" x1="459.35" y1="342.4" x2="603.29" y2="342.4" xlink:href="#linear-gradient"/><linearGradient id="linear-gradient-83" x1="484.35" y1="342.4" x2="693.35" y2="342.4" xlink:href="#linear-gradient"/><linearGradient id="linear-gradient-84" x1="693.35" y1="400.9" x2="891.29" y2="400.9" xlink:href="#linear-gradient"/><linearGradient id="linear-gradient-85" x1="693.35" y1="259.9" x2="891.29" y2="259.9" xlink:href="#linear-gradient"/><linearGradient id="linear-gradient-86" x1="709.35" y1="158.94" x2="846.35" y2="158.94" xlink:href="#linear-gradient"/><linearGradient id="linear-gradient-87" x1="709.35" y1="259.9" x2="891.29" y2="259.9" xlink:href="#linear-gradient"/><linearGradient id="linear-gradient-88" x1="818.88" y1="163.94" x2="936.65" y2="163.94" xlink:href="#linear-gradient"/><linearGradient id="linear-gradient-89" x1="846.35" y1="279.4" x2="923.35" y2="279.4" xlink:href="#linear-gradient"/><linearGradient id="linear-gradient-90" x1="782.35" y1="384.9" x2="980.35" y2="384.9" xlink:href="#linear-gradient"/><linearGradient id="linear-gradient-91" x1="923.35" y1="229.4" x2="992.35" y2="229.4" xlink:href="#linear-gradient"/><linearGradient id="linear-gradient-92" x1="923.35" y1="157.19" x2="992.35" y2="157.19" xlink:href="#linear-gradient"/><linearGradient id="linear-gradient-93" x1="992.32" y1="127.69" x2="1096.35" y2="127.69" xlink:href="#linear-gradient"/><linearGradient id="linear-gradient-94" x1="1086.86" y1="171.49" x2="1134.35" y2="171.49" xlink:href="#linear-gradient"/><linearGradient id="linear-gradient-95" x1="980.35" y1="229.4" x2="1134.35" y2="229.4" xlink:href="#linear-gradient"/><linearGradient id="linear-gradient-96" x1="980.35" y1="330.9" x2="1225.35" y2="330.9" xlink:href="#linear-gradient"/><linearGradient id="linear-gradient-97" x1="980.35" y1="395.28" x2="1225.35" y2="395.28" xlink:href="#linear-gradient"/><linearGradient id="linear-gradient-98" x1="1096.35" y1="102.35" x2="1196.85" y2="102.35" xlink:href="#linear-gradient"/><linearGradient id="linear-gradient-99" x1="1196.85" y1="124.78" x2="1277.35" y2="124.78" xlink:href="#linear-gradient"/><linearGradient id="linear-gradient-100" x1="1181.53" y1="69.35" x2="1277.35" y2="69.35" xlink:href="#linear-gradient"/><linearGradient id="linear-gradient-101" x1="1338.86" y1="74.45" x2="1432.85" y2="74.45" xlink:href="#linear-gradient"/><linearGradient id="linear-gradient-102" x1="1277.35" y1="74.45" x2="1385.35" y2="74.45" xlink:href="#linear-gradient"/><linearGradient id="linear-gradient-103" x1="1277.35" y1="161.4" x2="1415.35" y2="161.4" xlink:href="#linear-gradient"/><linearGradient id="linear-gradient-104" x1="1277.35" y1="223.96" x2="1385.35" y2="223.96" xlink:href="#linear-gradient"/><linearGradient id="linear-gradient-105" x1="1385.35" y1="199.78" x2="1501.35" y2="199.78" xlink:href="#linear-gradient"/><linearGradient id="linear-gradient-106" x1="1415.35" y1="320.4" x2="1501.35" y2="320.4" xlink:href="#linear-gradient"/><linearGradient id="linear-gradient-107" x1="1432.85" y1="109.17" x2="1506.85" y2="109.17" xlink:href="#linear-gradient"/><linearGradient id="linear-gradient-108" x1="1506.85" y1="139.39" x2="1604.35" y2="139.39" xlink:href="#linear-gradient"/><linearGradient id="linear-gradient-109" x1="1501.35" y1="241.78" x2="1604.35" y2="241.78" xlink:href="#linear-gradient"/><linearGradient id="linear-gradient-110" x1="1196.85" y1="164.67" x2="1277.35" y2="164.67" xlink:href="#linear-gradient"/><linearGradient id="linear-gradient-111" x1="1134.35" y1="330.78" x2="1225.35" y2="330.78" xlink:href="#linear-gradient"/><linearGradient id="linear-gradient-112" x1="1208.85" y1="330.78" x2="1415.35" y2="330.78" xlink:href="#linear-gradient"/><linearGradient id="linear-gradient-113" x1="1638.78" y1="173.13" x2="1686.85" y2="173.13" xlink:href="#linear-gradient"/><linearGradient id="linear-gradient-114" x1="1604.35" y1="173.13" x2="1686.85" y2="173.13" xlink:href="#linear-gradient"/><linearGradient id="linear-gradient-115" x1="1415.35" y1="327.9" x2="1638.85" y2="327.9" xlink:href="#linear-gradient"/><linearGradient id="linear-gradient-116" x1="1604.35" y1="306.28" x2="1686.85" y2="306.28" xlink:href="#linear-gradient"/><linearGradient id="linear-gradient-117" x1="1638.85" y1="411.35" x2="1872.35" y2="411.35" xlink:href="#linear-gradient"/><linearGradient id="linear-gradient-118" x1="1686.85" y1="257.85" x2="1778.35" y2="257.85" xlink:href="#linear-gradient"/><linearGradient id="linear-gradient-119" x1="1778.35" y1="207.35" x2="1884.35" y2="207.35" xlink:href="#linear-gradient"/><linearGradient id="linear-gradient-120" x1="1803.15" y1="207.35" x2="1908.85" y2="207.35" xlink:href="#linear-gradient"/><linearGradient id="linear-gradient-121" x1="1638.85" y1="352.61" x2="2165.94" y2="352.61" xlink:href="#linear-gradient"/><linearGradient id="linear-gradient-122" x1="762.85" y1="380.78" x2="891.29" y2="380.78" xlink:href="#linear-gradient"/><linearGradient id="linear-gradient-123" x1="762.85" y1="198.83" x2="846.35" y2="198.83" xlink:href="#linear-gradient"/></defs><g id="Layer_1-2"><polygon class="cls-33" points="1260.36 56.69 1339.01 2.63 1342.58 103.99 1260.36 56.69"/><polygon class="cls-7" points="1339.01 2.63 1451.82 53.31 1342.58 103.99 1339.01 2.63"/><polygon class="cls-5" points="1451.82 53.31 1522.78 39.8 1522.78 98.98 1451.82 53.31"/><polygon class="cls-8" points="1522.78 39.8 1568.95 90.48 1522.78 98.98 1522.78 39.8"/><polygon class="cls-1" points="64.97 258.65 164.53 218.87 .47 388.15 64.97 258.65"/><polygon class="cls-3" points="164.53 218.87 264.47 158.15 214.5 239.14 164.53 218.87"/><polygon class="cls-2" points="264.47 158.15 351.49 174.94 367.26 218.87 264.47 158.15"/><polygon class="cls-6" points="214.5 239.14 367.26 218.87 264.47 158.15 214.5 239.14"/><polygon class="cls-4" points="351.49 174.94 526.06 73.58 367.26 218.87 351.49 174.94"/><polygon class="cls-124" points="526.06 73.58 577.86 171.57 551.96 256.33 526.06 73.58"/><polygon class="cls-104" points="367.26 218.87 551.96 256.33 526.06 73.58 367.26 218.87"/><polygon class="cls-102" points="526.06 73.58 667.96 124.26 577.86 171.57 526.06 73.58"/><polygon class="cls-99" points="667.96 124.26 818.88 103.99 762.57 188.51 667.96 124.26"/><polygon class="cls-105" points="577.86 171.57 655.57 239.14 667.96 124.26 577.86 171.57"/><polygon class="cls-103" points="577.86 171.57 551.96 256.33 655.57 239.14 577.86 171.57"/><polygon class="cls-98" points="667.96 124.26 762.57 188.51 655.57 239.14 667.96 124.26"/><polygon class="cls-100" points="818.88 103.99 936.65 139.76 881.95 171.57 818.88 103.99"/><polygon class="cls-101" points="762.57 188.51 818.88 103.99 881.95 171.57 762.57 188.51"/><polygon class="cls-108" points="936.65 139.76 992.32 90.48 1035.12 213.95 936.65 139.76"/><polygon class="cls-97" points="881.95 171.57 936.65 139.76 1035.12 213.95 881.95 171.57"/><polygon class="cls-106" points="992.32 90.48 1086.92 103.99 1035.12 213.95 992.32 90.48"/><polygon class="cls-110" points="1086.92 103.99 1181.53 39.8 1157.88 158.15 1086.92 103.99"/><polygon class="cls-107" points="1260.36 56.69 1342.58 103.99 1157.88 158.15 1260.36 56.69 1181.53 39.8 1260.36 56.69"/><polygon class="cls-109" points="1568.95 90.48 1638.78 73.58 1630.9 164.96 1568.95 90.48"/><polygon class="cls-96" points="1638.78 73.58 1741.47 146.15 1630.9 164.96 1638.78 73.58"/><polygon class="cls-117" points="1741.47 146.15 1803.21 103.99 1815.6 158.15 1741.47 146.15"/><polygon class="cls-94" points="1803.21 103.99 1892.69 158.15 1815.6 158.15 1803.21 103.99"/><polygon class="cls-124" points="1815.6 158.15 2166.47 496.15 1743.18 327.15 1815.6 158.15"/><polygon class="cls-95" points="1741.47 146.15 1743.18 327.15 1815.6 158.15 1741.47 146.15"/><polygon class="cls-119" points="1630.9 164.96 1741.47 146.15 1743.18 327.15 1630.9 164.96"/><polygon class="cls-116" points="1630.9 164.96 1687.04 533.09 1743.18 327.15 1630.9 164.96"/><polygon class="cls-120" points="1743.18 327.15 2166.47 496.15 1687.04 533.09 1743.18 327.15"/><polygon class="cls-123" points="214.5 239.14 .47 388.15 164.53 218.87 214.5 239.14"/><polygon class="cls-122" points="214.5 239.14 107.49 627.69 .47 388.15 214.5 239.14"/><polygon class="cls-121" points="367.26 218.87 107.49 627.69 214.5 239.14 367.26 218.87"/><polygon class="cls-118" points="367.26 218.87 443.84 327.15 551.96 256.33 367.26 218.87"/><polygon class="cls-114" points="443.84 327.15 107.49 627.69 367.26 218.87 443.84 327.15"/><polygon class="cls-124" points="443.84 327.15 417.47 721.15 107.49 627.69 443.84 327.15"/><polygon class="cls-113" points="443.84 327.15 551.96 256.33 417.47 721.15 443.84 327.15"/><polygon class="cls-115" points="655.57 239.14 417.47 721.15 551.96 256.33 655.57 239.14"/><polygon class="cls-111" points="655.57 239.14 890.96 273.01 762.57 188.51 655.57 239.14"/><polygon class="cls-112" points="881.95 171.57 762.57 188.51 890.96 273.01 881.95 171.57"/><polygon class="cls-34" points="890.96 273.01 1035.12 213.95 881.95 171.57 890.96 273.01"/><polygon class="cls-37" points="1035.12 213.95 1086.92 103.99 1157.88 158.15 1035.12 213.95"/><polygon class="cls-36" points="1157.88 158.15 1181.53 39.8 1260.36 56.69 1157.88 158.15"/><polygon class="cls-35" points="1342.58 103.99 1432.68 146.25 1451.82 53.31 1342.58 103.99"/><polygon class="cls-50" points="1432.68 146.25 1522.78 98.98 1451.82 53.31 1432.68 146.25"/><polygon class="cls-52" points="1568.95 90.48 1514.89 213.95 1522.78 98.98 1568.95 90.48"/><polygon class="cls-53" points="1568.95 90.48 1630.9 164.96 1514.89 213.95 1568.95 90.48"/><polygon class="cls-49" points="1514.89 213.95 1630.9 164.96 1687.04 533.09 1514.89 213.95"/><polygon class="cls-48" points="1514.89 213.95 1522.78 98.98 1432.68 146.25 1514.89 213.95"/><polygon class="cls-51" points="1514.89 213.95 1687.04 533.09 1315.53 302.21 1514.89 213.95"/><polygon class="cls-47" points="1432.68 146.25 1315.53 302.21 1514.89 213.95 1432.68 146.25"/><polygon class="cls-45" points="1342.58 103.99 1315.53 302.21 1432.68 146.25 1342.58 103.99"/><polygon class="cls-46" points="1157.88 158.15 1160.68 293.2 1035.12 213.95 1157.88 158.15"/><polygon class="cls-44" points="1157.88 158.15 1315.53 302.21 1342.58 103.99 1157.88 158.15"/><polygon class="cls-38" points="1157.88 158.15 1160.68 293.2 1315.53 302.21 1157.88 158.15"/><polygon class="cls-39" points="1315.53 302.21 1451.82 676.12 1687.04 533.09 1315.53 302.21"/><polygon class="cls-41" points="1315.53 302.21 1301.47 615.3 1451.82 676.12 1315.53 302.21"/><polygon class="cls-43" points="1160.68 293.2 1134.22 408.08 1315.53 302.21 1160.68 293.2"/><polygon class="cls-40" points="1134.22 408.08 1301.47 615.3 1315.53 302.21 1134.22 408.08"/><polygon class="cls-42" points="1035.12 213.95 1134.22 408.08 1160.68 293.2 1035.12 213.95"/><polygon class="cls-66" points="1035.12 213.95 975.47 507.15 1134.22 408.08 1035.12 213.95"/><polygon class="cls-63" points="890.96 273.01 975.47 507.15 1035.12 213.95 890.96 273.01"/><polygon class="cls-62" points="655.57 239.14 890.96 273.01 550.6 451.65 655.57 239.14"/><polygon class="cls-71" points="890.96 273.01 975.47 507.15 550.6 451.65 890.96 273.01"/><g class="cls-126"><path class="cls-125" d="M64.8,261.94c3.86,0,3.87-6,0-6s-3.87,6,0,6h0Z"/><path class="cls-125" d="M164.47,221.96c3.86,0,3.87-6,0-6s-3.87,6,0,6h0Z"/><path class="cls-125" d="M214.31,242.23c3.86,0,3.87-6,0-6s-3.87,6,0,6h0Z"/><path class="cls-125" d="M264.43,161.42c3.86,0,3.87-6,0-6s-3.87,6,0,6h0Z"/><path class="cls-125" d="M351.43,177.75c3.86,0,3.87-6,0-6s-3.87,6,0,6h0Z"/><path class="cls-125" d="M367.2,221.96c3.86,0,3.87-6,0-6s-3.87,6,0,6h0Z"/><path class="cls-125" d="M443.78,330.08c3.86,0,3.87-6,0-6s-3.87,6,0,6h0Z"/><path class="cls-125" d="M551.9,259.4c3.86,0,3.87-6,0-6s-3.87,6,0,6h0Z"/><path class="cls-125" d="M526,76.67c3.86,0,3.87-6,0-6s-3.87,6,0,6h0Z"/><path class="cls-125" d="M578.09,174.65c3.86,0,3.87-6,0-6s-3.87,6,0,6h0Z"/><path class="cls-125" d="M667.62,127.07c3.86,0,3.87-6,0-6s-3.87,6,0,6h0Z"/><path class="cls-125" d="M655.51,242.23c3.86,0,3.87-6,0-6s-3.87,6,0,6h0Z"/><path class="cls-125" d="M762.51,191.55c3.86,0,3.87-6,0-6s-3.87,6,0,6h0Z"/><path class="cls-125" d="M819.1,107.08c3.86,0,3.87-6,0-6s-3.87,6,0,6h0Z"/><path class="cls-125" d="M881.61,174.65c3.86,0,3.87-6,0-6s-3.87,6,0,6h0Z"/><path class="cls-125" d="M936.79,142.63c3.86,0,3.87-6,0-6s-3.87,6,0,6h0Z"/><path class="cls-125" d="M992.54,93.85c3.86,0,3.87-6,0-6s-3.87,6,0,6h0Z"/><path class="cls-125" d="M1086.86,107.08c3.86,0,3.87-6,0-6s-3.87,6,0,6h0Z"/><path class="cls-125" d="M1034.78,216.89c3.86,0,3.87-6,0-6s-3.87,6,0,6h0Z"/><path class="cls-125" d="M1158.1,160.86c3.86,0,3.87-6,0-6s-3.87,6,0,6h0Z"/><path class="cls-125" d="M1181.47,42.88c3.86,0,3.87-6,0-6s-3.87,6,0,6h0Z"/><path class="cls-125" d="M1260.59,59.78c3.86,0,3.87-6,0-6s-3.87,6,0,6h0Z"/><path class="cls-125" d="M1338.86,6c3.86,0,3.87-6,0-6s-3.87,6,0,6h0Z"/><path class="cls-125" d="M1342.8,107.08c3.86,0,3.87-6,0-6s-3.87,6,0,6h0Z"/><path class="cls-125" d="M1451.77,56.68c3.86,0,3.87-6,0-6s-3.87,6,0,6h0Z"/><path class="cls-125" d="M1522.72,42.88c3.86,0,3.87-6,0-6s-3.87,6,0,6h0Z"/><path class="cls-125" d="M1522.72,102.01c3.86,0,3.87-6,0-6s-3.87,6,0,6h0Z"/><path class="cls-125" d="M1432.62,149.31c3.86,0,3.87-6,0-6s-3.87,6,0,6h0Z"/><path class="cls-125" d="M1315.49,305.02c3.86,0,3.87-6,0-6s-3.87,6,0,6h0Z"/><path class="cls-125" d="M1160.35,296.29c3.86,0,3.87-6,0-6s-3.87,6,0,6h0Z"/><path class="cls-125" d="M890.71,276.11c3.86,0,3.87-6,0-6s-3.87,6,0,6h0Z"/><path class="cls-125" d="M1514.84,217.17c3.86,0,3.87-6,0-6s-3.87,6,0,6h0Z"/><path class="cls-125" d="M1568.33,93.85c3.86,0,3.87-6,0-6s-3.87,6,0,6h0Z"/><path class="cls-125" d="M1638.72,76.95c3.86,0,3.87-6,0-6s-3.87,6,0,6h0Z"/><path class="cls-125" d="M1631.4,168.18c3.86,0,3.87-6,0-6s-3.87,6,0,6h0Z"/><path class="cls-125" d="M1741.21,149.6c3.86,0,3.87-6,0-6s-3.87,6,0,6h0Z"/><path class="cls-125" d="M1803.15,106.8c3.86,0,3.87-6,0-6s-3.87,6,0,6h0Z"/><path class="cls-125" d="M1816.1,161.42c3.86,0,3.87-6,0-6s-3.87,6,0,6h0Z"/><path class="cls-125" d="M1742.9,329.79c3.86,0,3.87-6,0-6s-3.87,6,0,6h0Z"/><path class="cls-125" d="M1892.31,161.23c3.86,0,3.87-6,0-6s-3.87,6,0,6h0Z"/></g><polygon class="cls-72" points="526 73.67 578.09 171.65 551.9 256.4 526 73.67"/><polygon class="cls-70" points="1816.1 158.42 1742.9 326.79 2166.47 496.15 1816.1 158.42"/><polygon class="cls-68" points="1892.94 158.54 1815.94 158.54 2165.94 496.54 1892.94 158.54"/><g><g><path class="cls-125" d="M128.35,286.9c3.86,0,3.87-6,0-6s-3.87,6,0,6h0Z"/><path class="cls-125" d="M229.35,491.9c3.86,0,3.87-6,0-6s-3.87,6,0,6h0Z"/><path class="cls-125" d="M360.35,363.9c3.86,0,3.87-6,0-6s-3.87,6,0,6h0Z"/><path class="cls-125" d="M484.35,419.9c3.86,0,3.87-6,0-6s-3.87,6,0,6h0Z"/><path class="cls-125" d="M693.35,336.9c3.86,0,3.87-6,0-6s-3.87,6,0,6h0Z"/><path class="cls-125" d="M709.35,177.9c3.86,0,3.87-6,0-6s-3.87,6,0,6h0Z"/><path class="cls-125" d="M846.35,216.9c3.86,0,3.87-6,0-6s-3.87,6,0,6h0Z"/><path class="cls-125" d="M980.35,304.9c3.86,0,3.87-6,0-6s-3.87,6,0,6h0Z"/><path class="cls-125" d="M1277.35,161.9c3.86,0,3.87-6,0-6s-3.87,6,0,6h0Z"/><path class="cls-125" d="M1385.35,148.9c3.86,0,3.87-6,0-6s-3.87,6,0,6h0Z"/><path class="cls-125" d="M992.35,159.9c3.86,0,3.87-6,0-6s-3.87,6,0,6h0Z"/><path class="cls-125" d="M923.35,226.9c3.86,0,3.87-6,0-6s-3.87,6,0,6h0Z"/><path class="cls-125" d="M1096.35,167.9c3.86,0,3.87-6,0-6s-3.87,6,0,6h0Z"/><path class="cls-125" d="M1501.35,321.9c3.86,0,3.87-6,0-6s-3.87,6,0,6h0Z"/><path class="cls-125" d="M1415.35,419.9c3.86,0,3.87-6,0-6s-3.87,6,0,6h0Z"/><path class="cls-125" d="M1872.35,498.9c3.86,0,3.87-6,0-6s-3.87,6,0,6h0Z"/><path class="cls-125" d="M1604.35,241.9c3.86,0,3.87-6,0-6s-3.87,6,0,6h0Z"/><path class="cls-125" d="M1277.35,101.9c3.86,0,3.87-6,0-6s-3.87,6,0,6h0Z"/><path class="cls-125" d="M1778.35,191.9c3.86,0,3.87-6,0-6s-3.87,6,0,6h0Z"/><path class="cls-125" d="M1884.35,313.9c3.86,0,3.87-6,0-6s-3.87,6,0,6h0Z"/><path class="cls-125" d="M1415.35,226.9c3.86,0,3.87-6,0-6s-3.87,6,0,6h0Z"/><path class="cls-125" d="M1134.35,241.9c3.86,0,3.87-6,0-6s-3.87,6,0,6h0Z"/><path class="cls-125" d="M782.35,470.9c3.86,0,3.87-6,0-6s-3.87,6,0,6h0Z"/><path class="cls-125" d="M107.35,454.9c3.86,0,3.87-6,0-6s-3.87,6,0,6h0Z"/><path class="cls-125" d="M367.35,509.9c3.86,0,3.87-6,0-6s-3.87,6,0,6h0Z"/><path class="cls-125" d="M459.35,177.9c3.86,0,3.87-6,0-6s-3.87,6,0,6h0Z"/><path class="cls-125" d="M251.35,329.9c3.86,0,3.87-6,0-6s-3.87,6,0,6h0Z"/><path class="cls-125" d="M275.35,208.9c3.86,0,3.87-6,0-6s-3.87,6,0,6h0Z"/><path class="cls-125" d="M459.35,275.9c3.86,0,3.87-6,0-6s-3.87,6,0,6h0Z"/><path class="cls-125" d="M610.35,125.9c3.86,0,3.87-6,0-6s-3.87,6,0,6h0Z"/><path class="cls-125" d="M1225.35,425.9c3.86,0,3.87-6,0-6s-3.87,6,0,6h0Z"/></g><polygon class="cls-124" points="128.35 283.9 164.53 218.87 275.35 205.9 128.35 283.9"/><polygon class="cls-69" points="264.43 158.42 275.35 205.9 164.53 218.87 264.43 158.42"/><polygon class="cls-67" points="164.53 218.87 64.8 258.94 128.35 283.9 164.53 218.87"/><polygon class="cls-73" points="128.35 283.9 107.35 451.9 64.8 258.94 128.35 283.9"/><polygon class="cls-55" points="275.35 205.9 251.35 326.9 128.35 283.9 275.35 205.9"/><polygon class="cls-54" points="251.35 326.9 229.35 488.9 128.35 283.9 251.35 326.9"/><polygon class="cls-124" points="251.35 326.9 360.35 360.9 229.35 488.9 251.35 326.9"/><polygon class="cls-65" points="275.35 205.9 360.35 360.9 251.35 326.9 275.35 205.9"/><polygon class="cls-64" points="264.43 158.42 459.35 272.9 275.35 205.9 264.43 158.42"/><polygon class="cls-124" points="459.35 272.9 360.35 360.9 275.35 205.9 459.35 272.9"/><polygon class="cls-60" points="459.35 272.9 367.35 506.9 360.35 360.9 459.35 272.9"/><polygon class="cls-61" points="459.35 174.9 526.06 73.58 459.35 272.9 459.35 174.9"/><polygon class="cls-58" points="459.35 174.9 360.35 360.9 459.35 272.9 459.35 174.9"/><path class="cls-125" d="M394.29,179.91c3.86,0,3.87-6,0-6s-3.87,6,0,6h0Z"/><path class="cls-125" d="M603.29,270.91c3.86,0,3.87-6,0-6s-3.87,6,0,6h0Z"/><path class="cls-125" d="M891.29,347.91c3.86,0,3.87-6,0-6s-3.87,6,0,6h0Z"/><polygon class="cls-59" points="394.29 176.91 526.06 73.58 459.35 174.9 394.29 176.91"/><polygon class="cls-56" points="394.29 176.91 360.35 360.9 275.35 205.9 394.29 176.91"/><polygon class="cls-57" points="610.35 122.9 459.35 174.9 526.06 73.58 610.35 122.9"/><polygon class="cls-77" points="610.35 122.9 667.62 124.07 709.35 174.9 610.35 122.9"/><polygon class="cls-78" points="610.35 122.9 603.29 267.91 709.35 174.9 610.35 122.9"/><polygon class="cls-81" points="459.35 272.9 484.35 416.9 603.29 267.91 459.35 272.9"/><polygon class="cls-124" points="709.35 174.9 693.35 333.9 603.29 267.91 709.35 174.9"/><polygon class="cls-80" points="484.35 416.9 693.35 333.9 603.29 267.91 484.35 416.9"/><polygon class="cls-83" points="693.35 333.9 782.35 467.9 891.29 344.91 693.35 333.9"/><polygon class="cls-79" points="709.35 174.9 891.29 344.91 693.35 333.9 709.35 174.9"/><polygon class="cls-82" points="818.88 103.99 709.35 174.9 846.35 213.9 818.88 103.99"/><polygon class="cls-76" points="891.29 344.91 846.35 213.9 709.35 174.9 891.29 344.91"/><polygon class="cls-124" points="923.35 223.9 818.88 103.99 846.35 213.9 923.35 223.9"/><polygon class="cls-74" points="923.35 223.9 936.65 139.76 818.88 103.99 923.35 223.9"/><polygon class="cls-75" points="923.35 223.9 891.29 344.91 846.35 213.9 923.35 223.9"/><polygon class="cls-124" points="923.35 223.9 980.35 301.9 891.29 344.91 923.35 223.9"/><polygon class="cls-93" points="980.35 301.9 782.35 467.9 891.29 344.91 980.35 301.9"/><polygon class="cls-88" points="980.35 301.9 992.35 156.9 923.35 223.9 980.35 301.9"/><polygon class="cls-92" points="992.32 90.48 992.35 156.9 923.35 223.9 992.32 90.48"/><polygon class="cls-91" points="992.32 90.48 1096.35 164.9 992.35 156.9 992.32 90.48"/><polygon class="cls-85" points="1096.35 164.9 1086.86 104.08 1134.35 238.9 1096.35 164.9"/><polygon class="cls-124" points="992.35 156.9 1096.35 164.9 1134.35 238.9 992.35 156.9"/><polygon class="cls-87" points="980.35 301.9 1134.35 238.9 992.35 156.9 980.35 301.9"/><polygon class="cls-90" points="980.35 301.9 1225.35 422.9 1134.35 238.9 980.35 301.9"/><path class="cls-125" d="M762.85,296.67c3.86,0,3.87-6,0-6s-3.87,6,0,6h0Z"/><path class="cls-125" d="M1208.85,241.67c3.86,0,3.87-6,0-6s-3.87,6,0,6h0Z"/><path class="cls-125" d="M1668.85,142.67c3.86,0,3.87-6,0-6s-3.87,6,0,6h0Z"/><path class="cls-125" d="M1908.85,211.67c3.86,0,3.87-6,0-6s-3.87,6,0,6h0Z"/><path class="cls-125" d="M1638.85,376.67c3.86,0,3.87-6,0-6s-3.87,6,0,6h0Z"/><path class="cls-125" d="M1686.85,275.67c3.86,0,3.87-6,0-6s-3.87,6,0,6h0Z"/><path class="cls-125" d="M1043.85,491.67c3.86,0,3.87-6,0-6s-3.87,6,0,6h0Z"/><path class="cls-125" d="M1196.85,93.67c3.86,0,3.87-6,0-6s-3.87,6,0,6h0Z"/><path class="cls-125" d="M1506.85,167.67c3.86,0,3.87-6,0-6s-3.87,6,0,6h0Z"/><path class="cls-125" d="M1432.85,83.67c3.86,0,3.87-6,0-6s-3.87,6,0,6h0Z"/><polygon class="cls-89" points="980.35 301.9 1043.85 488.67 1225.35 422.9 980.35 301.9"/><polygon class="cls-124" points="1181.53 39.8 1196.85 90.67 1277.35 98.9 1181.53 39.8"/><polygon class="cls-84" points="1181.53 39.8 1096.35 164.9 1196.85 90.67 1181.53 39.8"/><polygon class="cls-86" points="1196.85 90.67 1277.35 158.9 1277.35 98.9 1196.85 90.67"/><polygon class="cls-19" points="1260.36 56.69 1277.35 98.9 1181.53 39.8 1260.36 56.69"/><polygon class="cls-18" points="1338.86 3 1432.85 80.67 1385.35 145.9 1338.86 3"/><polygon class="cls-28" points="1338.86 3 1277.35 98.9 1385.35 145.9 1338.86 3"/><polygon class="cls-16" points="1415.35 223.9 1277.35 98.9 1385.35 145.9 1415.35 223.9"/><polygon class="cls-15" points="1315.49 302.02 1385.35 145.9 1277.35 158.9 1315.49 302.02"/><polygon class="cls-27" points="1501.35 318.9 1432.85 80.67 1385.35 145.9 1501.35 318.9"/><polygon class="cls-11" points="1501.35 318.9 1415.35 416.9 1415.35 223.9 1501.35 318.9"/><polygon class="cls-14" points="1451.77 53.68 1432.85 80.67 1506.85 164.67 1451.77 53.68"/><polygon class="cls-12" points="1522.72 39.88 1506.85 164.67 1604.35 238.9 1522.72 39.88"/><polygon class="cls-13" points="1604.35 238.9 1501.35 318.9 1506.85 164.67 1604.35 238.9"/><polygon class="cls-26" points="1208.85 238.67 1277.35 158.9 1196.85 90.67 1208.85 238.67"/><polygon class="cls-22" points="1208.85 238.67 1134.35 238.9 1225.35 422.9 1208.85 238.67"/><polygon class="cls-23" points="1415.35 416.9 1208.85 238.67 1225.35 422.9 1415.35 416.9"/><polygon class="cls-25" points="1638.78 73.58 1668.85 139.67 1686.85 272.67 1638.78 73.58"/><polygon class="cls-24" points="1638.78 73.58 1604.35 238.9 1686.85 272.67 1638.78 73.58"/><polygon class="cls-30" points="1604.35 238.9 1638.85 373.67 1415.35 416.9 1604.35 238.9"/><polygon class="cls-31" points="1638.85 373.67 1686.85 272.67 1604.35 238.9 1638.85 373.67"/><polygon class="cls-20" points="1638.85 373.67 1872.35 495.9 1742.9 326.79 1638.85 373.67"/><polygon class="cls-21" points="1686.85 272.67 1742.9 326.79 1778.35 188.9 1686.85 272.67"/><polygon class="cls-29" points="1803.15 103.8 1778.35 188.9 1884.35 310.9 1803.15 103.8"/><polygon class="cls-32" points="1803.15 103.8 1908.85 208.67 1884.35 310.9 1803.15 103.8"/><polygon class="cls-124" points="1884.35 310.9 1872.35 495.9 1742.9 326.79 1884.35 310.9"/><polygon class="cls-9" points="1908.85 208.67 2165.94 496.54 1638.85 373.67 1908.85 208.67"/><polygon class="cls-124" points="709.35 174.9 762.85 293.67 782.35 467.9 709.35 174.9"/><polygon class="cls-10" points="762.85 293.67 891.29 344.91 782.35 467.9 762.85 293.67"/><polygon class="cls-17" points="818.88 103.99 762.85 293.67 846.35 213.9 818.88 103.99"/><polygon class="cls-124" points="551.96 256.33 782.35 467.9 484.35 416.9 551.96 256.33"/></g></g></svg>