<svg xmlns="http://www.w3.org/2000/svg" viewBox="0 0 91.02 95.93"><path d="M29.72 95.93c-3.86 0-7.62-.73-11.18-2.18-3.69-1.5-7-3.69-9.84-6.53s-5.03-6.15-6.53-9.84C.73 73.82-.01 70.06-.01 66.2s.73-7.62 2.18-11.18c1.5-3.69 3.69-7 6.53-9.84L47.88 6.2A21.09 21.09 0 0 1 62.84 0c2.74 0 5.43.52 7.96 1.55 2.63 1.07 4.98 2.63 7 4.65A21.09 21.09 0 0 1 84 21.16c0 2.74-.52 5.43-1.55 7.96a21.066 21.066 0 0 1-4.65 7L38.72 75.2a12.709 12.709 0 0 1-9.01 3.73 12.686 12.686 0 0 1-9.01-3.73 12.608 12.608 0 0 1-2.8-4.22c-.62-1.53-.93-3.14-.93-4.79s.31-3.27.93-4.79c.64-1.58 1.58-3 2.8-4.22l36.05-36.01a4.249 4.249 0 1 1 6.01 6.01L26.72 63.2c-.8.8-1.24 1.87-1.24 3s.44 2.2 1.24 3c.8.8 1.87 1.24 3 1.24s2.2-.44 3-1.24l39.09-39.07c2.39-2.39 3.71-5.58 3.71-8.96s-1.32-6.57-3.71-8.96c-2.39-2.39-5.58-3.71-8.96-3.71s-6.57 1.32-8.96 3.71L14.71 51.19c-2.03 2.03-3.6 4.39-4.66 7.02-1.03 2.54-1.55 5.23-1.55 7.99s.52 5.45 1.55 7.99c1.07 2.63 2.64 4.99 4.67 7.02 2.03 2.03 4.39 3.6 7.02 4.66 2.54 1.03 5.23 1.56 7.99 1.56s5.45-.52 7.99-1.56c2.63-1.07 4.99-2.64 7.02-4.66l39.03-39.03a4.237 4.237 0 0 1 6 0 4.249 4.249 0 0 1 0 6.01L50.74 87.22a29.5 29.5 0 0 1-9.84 6.53 29.68 29.68 0 0 1-11.18 2.18Z"/></svg>