<svg xmlns="http://www.w3.org/2000/svg" id="Layer_2" viewBox="0 0 597.98 260.42"><defs/><g id="Layer_1-2"><path d="m156.26 143.77-3.16 10.13h-4.51l13-43.87h5.18l12.69 43.87h-4.87l-2.85-10.13h-15.48Zm7.82-26.77-6.53 22.03h12.84L164.07 117ZM204.12 110.03h4.61l-12.01 43.87h-4.25l-11.65-43.87h4.56l9.27 34.86 9.48-34.86ZM234 110.03h9.17c10.41 0 16.68 8.02 16.68 21.24 0 7.43-1.92 13.55-5.44 17.56-3 3.42-6.99 5.06-12.01 5.06h-8.39v-43.87Zm4.35 39.13h1.55c5.85 0 8.34-.79 10.82-3.29 3.11-3.16 4.66-8.02 4.66-14.53 0-10.59-4.45-16.64-12.38-16.64h-4.66v34.46ZM273.37 129.43h13.62v4.74h-13.62v14.99h13.62v4.74h-17.97v-43.87h17.97v4.73h-13.62v14.67ZM316.51 110.03h4.61l-12.01 43.87h-4.25l-11.65-43.87h4.56l9.27 34.86 9.48-34.86ZM332.36 129.43h13.62v4.74h-13.62v14.99h13.62v4.74h-17.97v-43.87h17.97v4.73h-13.62v14.67ZM372.03 148.9v5h-16.52v-43.87h4.35v38.87h12.17ZM405.23 116.81c2.8 4.14 4.04 9.01 4.04 15.59s-2.07 12.96-5.85 17.03c-3.11 3.42-7.04 5.26-11.03 5.26-5.13 0-10.15-3.09-13.36-8.22-2.38-3.81-3.63-8.75-3.63-14.27 0-13.09 7.3-22.95 17.09-22.95 4.82 0 9.42 2.76 12.74 7.56ZM379.85 132c0 10.19 5.28 17.62 12.43 17.62 3.47 0 6.89-1.91 9.22-5.26 2.02-2.83 3.31-7.56 3.31-12.04 0-5.85-1.24-10.13-3.94-13.42-2.28-2.83-5.44-4.54-8.49-4.54-7.2 0-12.53 7.5-12.53 17.63ZM422.37 153.9h-4.35v-43.87h9.22c8.18 0 12.69 4.73 12.69 13.42 0 4.34-1.35 8.22-3.68 10.65-2.02 2.04-4.71 3.02-8.55 3.02h-5.33v16.77Zm4.51-21.5c1.86 0 3.11-.2 4.3-.79 2.64-1.18 4.35-4.27 4.35-8.02s-1.66-6.77-4.4-7.96c-1.35-.59-2.74-.86-4.82-.86h-3.94v17.63h4.51ZM452.1 153.9h-4.35v-43.87h4.3l12.79 32.88 12.95-32.88h4.25v43.87h-4.35v-32.09l-12.84 32.55-12.74-32.62v32.16ZM497.16 129.43h13.62v4.74h-13.62v14.99h13.62v4.74h-17.97v-43.87h17.97v4.73h-13.62v14.67ZM524.66 153.9h-4.35v-43.87h3.99l18.44 33.01v-33.01h4.35v43.87h-3.83l-18.59-33.54v33.54ZM567.5 153.9h-4.35v-39.13h-8.8v-4.73h21.91v4.73h-8.75v39.13Z" class="cls-2"/><path d="M6.49 53.04 53.04 6.49l66.15 112.7L6.49 53.04z" class="cls-1"/><path d="m52.21 12.97 55.76 94.99-95-55.75 39.24-39.24M53.87 0 0 53.87l130.42 76.56L53.87 0ZM6.49 207.39l112.7-66.16-66.15 112.71-46.55-46.55z" class="cls-1"/><path d="M107.96 152.46 52.2 247.45l-39.23-39.23 94.99-55.76M130.42 130 0 206.56l53.87 53.87 76.56-130.42Z" class="cls-1"/></g></svg>