<svg xmlns="http://www.w3.org/2000/svg" viewBox="0 0 93.16 93"><path d="M46.67 44.69c-2.41 0-4.2 1.95-4.2 4.2.2 13.12-1.48 25.77-5.04 38.42-.64 1.94.25 5.7 4.04 5.7 1.91 0 3.65-1.25 4.2-3.18 2.45-8.69 5.47-22.78 5.36-40.78 0-2.4-1.95-4.36-4.36-4.36Zm-.16-14.84c-11.28-.04-18.89 8.54-18.73 18.36.14 8.69-.68 17.41-2.43 25.88-.5 2.2 1.02 4.65 3.38 5.15 2.2.48 4.65-1.02 5.15-3.38 1.88-9.1 2.75-18.45 2.61-27.63-.07-4.9 3.45-9.71 9.88-9.67 5.7.09 10.4 4.61 10.47 10.08.16 8.55-.5 17.48-1.93 26.06-.39 2.2 1.23 4.61 3.61 5.02 3.61.59 4.86-2.75 4.99-3.61 1.5-8.92 2.2-18.36 2.04-27.44-.17-10.33-8.7-18.68-19.06-18.83Zm-20.09-3.6a4.38 4.38 0 0 0-6.16.62c-4.62 5.72-7.14 12.97-7.03 20.34.11 6.83-.43 13.69-1.63 20.36-.43 2.2 1.14 4.63 3.5 5.06 3.65.64 4.93-2.7 4.92-3.52 1.29-7.24 1.91-14.64 1.77-22.05.09-5.41 1.83-10.5 5.09-14.68 1.69-1.89 1.42-4.61-.45-6.14Zm19.71-11.33c-2.63-.07-5.45.25-8.16.91-2.34.38-3.79 2.74-3.25 5.24.57 2.34 2.74 3.77 5.1 3.22 2.17-.45 4.23-.68 6.35-.66 13.69.2 24.99 11.17 25.23 24.45.09 6.88-.25 13.64-1.02 20.63-.27 2.38 1.45 4.38 3.84 4.81 3.04.2 4.63-2.16 4.81-3.84.84-7.22 1.2-14.49 1.09-21.74-.31-17.92-15.47-32.76-34-33.03Zm45.95 22.06c-.52-2.2-2.82-3.86-5.2-3.34-2.2.52-3.84 2.86-3.31 5.2.86 3.91.89 6.81.86 11.19-.02 2.41 1.91 4.38 4.31 4.4 2.38 0 4.38-1.93 4.4-4.34.02-4 .06-8-1.07-13.12Zm-7.45-16.47C75.78 7.91 61.31.22 45.89 0 33.23-.16 21.52 4.52 12.8 13.26 4.38 21.68-.16 32.87.02 44.79L0 48.7c.09 2.42 1.98 4.42 4.38 4.49.05.02.09.02.14.02 2.2 0 4.29-1.88 4.2-4.24l.02-4.29c.03-9.54 3.64-18.51 10.38-25.25 7.06-7.04 16.6-10.83 26.83-10.69 12.6.02 24.47 6.47 31.71 16.78a4.349 4.349 0 0 0 6.06 1.07c1.82-1.39 2.46-4.08.91-6.06Z"/></svg>