<?xml version="1.0" encoding="UTF-8"?><svg id="Layer_2" xmlns="http://www.w3.org/2000/svg" viewBox="0 0 230.86 102.78"><defs><style>.cls-1{stroke:#000;stroke-linecap:round;stroke-miterlimit:10;stroke-width:2px;}</style></defs><g id="Layer_1-2"><g><path class="cls-1" d="M185,54.11c0,15.53-12.58,28.11-28.11,28.11-3.46,0-6.77-.63-9.84-1.77,10.68-3.99,18.27-14.27,18.27-26.34s-7.59-22.35-18.27-26.34c3.06-1.14,6.38-1.77,9.84-1.77,15.53,0,28.11,12.58,28.11,28.11Z"/><path d="M179.47,1c27.78,0,50.39,22.6,50.39,50.39s-22.6,50.39-50.39,50.39H51.39C23.6,101.78,1,79.17,1,51.39S23.6,1,51.39,1H179.47m0-1H51.39C23.13,0,0,23.13,0,51.39s23.13,51.39,51.39,51.39H179.47c28.26,0,51.39-23.13,51.39-51.39S207.73,0,179.47,0h0Z"/><circle class="cls-1" cx="64.04" cy="51.39" r="35.58"/></g></g></svg>