<svg xmlns="http://www.w3.org/2000/svg" viewBox="0 0 87.37 91"><path d="M87.37 43.67v19.11c-.15 7.54-6.13 13.67-13.65 13.67-4.52 0-8.19-3.68-8.19-8.2V46.43c0-4.52 3.67-8.21 8.19-8.21 1.85 0 3.57.46 5.17 1.14-2.15-17.67-17.1-31.15-35.2-31.15S10.63 21.69 8.48 39.37c1.6-.68 3.32-1.14 5.17-1.14 4.52 0 8.19 3.69 8.19 8.21v21.83c0 4.51-3.67 8.19-8.19 8.19-7.53 0-13.5-6.12-13.5-13.66L0 43.7C0 19.59 19.59 0 43.68 0S87.3 19.54 87.21 43.57c0 .03 0 .07.15.1Z"/><path fill="none" stroke="#000" stroke-linecap="round" stroke-linejoin="round" stroke-width="10" d="M75.66 68.23S79.1 86 65.91 86H41.88"/></svg>